<?xml version="1.0" encoding="utf-8"?>
<!-- Generator: Adobe Illustrator 16.0.0, SVG Export Plug-In . SVG Version: 6.00 Build 0)  -->
<!DOCTYPE svg PUBLIC "-//W3C//DTD SVG 1.1//EN" "http://www.w3.org/Graphics/SVG/1.1/DTD/svg11.dtd">
<svg version="1.1" id="Layer_1" xmlns="http://www.w3.org/2000/svg" xmlns:xlink="http://www.w3.org/1999/xlink" x="0px" y="0px"
	   viewBox="0 0 800 800" enable-background="new 0 0 800 800" xml:space="preserve">
<g>
	<path fill="#2D2C28" d="M108.481,373.765c0,25.743-20.867,46.598-46.598,46.598s-46.597-20.855-46.597-46.598
		c0-23.105,16.81-42.279,38.87-45.961l0.074,0.348c-17.195,6.681-27.51,22.881-27.51,41.806c0,24.188,17.083,38.073,35.162,38.073
		c18.925,0,34.267-15.341,34.267-34.266c0-16.25-12.854-29.762-29.588-29.762c-19.36,0-28.519,17.581-28.519,17.581l-0.299-0.099
		c0,0,8.711-25.246,33.955-25.246C87.254,336.239,108.481,348.931,108.481,373.765z M514.104,387.353l15.205-34.677l15.079,34.677
		H514.104z M558.173,419.057H571.5l-36.904-81.512h-10.353l-36.892,81.512h12.866l9.183-20.967h39.653L558.173,419.057z
		 M566.41,448.309h2.576v23.428h-2.104l-15.129-19.211v19.211h-2.575v-23.428h2.475l14.757,18.774V448.309z M505.729,450.724
		h-14.283v8h12.779v2.401h-12.779v8.197h14.459v2.414h-17.109v-23.428h16.934V450.724z M435.677,450.759h-5.484v18.54h5.484
		c5.924,0,9.707-4.021,9.707-9.244C445.384,454.842,441.601,450.759,435.677,450.759z M435.677,471.736h-8.122v-23.428h8.122
		c7.367,0,12.456,5.053,12.456,11.682C448.133,466.61,443.044,471.736,435.677,471.736z M386.046,450.724h-14.284v8h12.779v2.401
		h-12.779v8.197h14.458v2.414h-17.108v-23.428h16.935V450.724z M315.56,448.371h2.178l6.433,19.583l6.694-19.509h2.773
		l-8.372,23.589h-2.228l-6.434-19.01l-6.47,19.01h-2.203l-8.373-23.589h2.887l6.694,19.509L315.56,448.371z M258.922,458.885
		c5.226,1.131,7.627,3.037,7.627,6.656c0,4.057-3.335,6.655-8.001,6.655c-3.707,0-6.755-1.231-9.567-3.743l1.643-1.931
		c2.438,2.203,4.79,3.299,8.037,3.299c3.136,0,5.214-1.63,5.214-4.008c0-2.213-1.169-3.445-6.097-4.491
		c-5.388-1.17-7.852-2.91-7.852-6.791c0-3.747,3.248-6.422,7.689-6.422c3.409,0,5.86,0.971,8.237,2.873l-1.544,2.042
		c-2.177-1.767-4.342-2.551-6.755-2.551c-3.049,0-4.99,1.679-4.99,3.82C252.563,456.546,253.771,457.777,258.922,458.885z
		 M23.375,458.947h183.762v1.69H23.375V458.947z M613.842,458.947h170.821v1.69H613.842V458.947z M156.906,377.61h22.186
		c11.123,0,18.303-5.661,18.303-14.421c0-8.747-6.632-13.748-18.19-13.748h-22.298V377.61z M214.042,418.981h-15.378l-22.073-30.173
		h-19.685v30.173h-12.082v-80.975h35.039c18.066,0,29.948,9.754,29.948,24.847c0,11.907-7.578,20.654-20.057,23.814L214.042,418.981
		z M156.906,377.598h22.186c11.123,0,18.303-5.661,18.303-14.409c0-8.747-6.632-13.748-18.19-13.748h-22.298V377.598z
		 M214.042,418.956h-15.378l-22.073-30.16h-19.685v30.16h-12.094v-80.95h35.051c18.066,0,29.948,9.754,29.948,24.847
		c0,11.895-7.578,20.642-20.057,23.801L214.042,418.956z M156.906,377.61h22.186c11.123,0,18.303-5.661,18.303-14.421
		c0-8.747-6.632-13.748-18.19-13.748h-22.298V377.61z M214.042,418.981h-15.378l-22.073-30.173h-19.685v30.173h-12.082v-80.975
		h35.039c18.066,0,29.948,9.754,29.948,24.847c0,11.907-7.578,20.654-20.057,23.814L214.042,418.981z M784.713,419.057h-59.997
		v-80.951h59.449v11.31h-47.368v23.167h42.379v11.31h-42.379v23.84h47.916V419.057z M640.182,397.754l-25.743-38.547v59.849h-5.935
		h-5.935v-80.951h11.422l27.396,41.023l27.411-41.023h11.423v80.951h-6.047h-6.048v-59.948l-25.742,38.646l-1.096,1.642
		L640.182,397.754z M463.438,419.057h-55.804v-80.951h12.104v69.516h43.699V419.057z M322.439,419.057h-12.093v-80.951h59.126
		v11.422h-47.033v24.387h42.045v11.31h-42.045V419.057z M263.986,419.057h-12.082v-80.951h12.082V419.057z M156.906,377.598h22.186
		c11.123,0,18.303-5.661,18.303-14.409c0-8.747-6.632-13.748-18.19-13.748h-22.298V377.598z M214.042,418.956h-15.378l-22.073-30.16
		h-19.685v30.16h-12.094v-80.95h35.051c18.066,0,29.948,9.754,29.948,24.847c0,11.895-7.578,20.642-20.057,23.801L214.042,418.956z"
		/>
</g>
</svg>
